<svg xmlns="http://www.w3.org/2000/svg" viewBox="0 0 100 100">
  <!--
    Prima Materia — The first matter
    Four elements emerging from center
    Alchemical creation diagram
  -->

  <!-- Three concentric circles -->
  <circle cx="50" cy="50" r="46" fill="none" stroke="#0a0a0a" stroke-width="1"/>
  <circle cx="50" cy="50" r="32" fill="none" stroke="#0a0a0a" stroke-width="0.5"/>
  <circle cx="50" cy="50" r="18" fill="none" stroke="#0a0a0a" stroke-width="0.5"/>

  <!-- FIRE — Radiating up from center -->
  <path d="M 50 32 L 56 18 L 50 6 L 44 18 Z" fill="none" stroke="#0a0a0a" stroke-width="1.5" stroke-linejoin="round"/>
  <line x1="50" y1="32" x2="50" y2="22" stroke="#0a0a0a" stroke-width="1"/>

  <!-- WATER — Radiating down from center -->
  <path d="M 50 68 L 44 82 L 50 94 L 56 82 Z" fill="none" stroke="#0a0a0a" stroke-width="1.5" stroke-linejoin="round"/>
  <line x1="50" y1="68" x2="50" y2="78" stroke="#0a0a0a" stroke-width="1"/>

  <!-- AIR — Radiating right from center -->
  <path d="M 68 50 L 82 44 L 94 50 L 82 56 Z" fill="none" stroke="#0a0a0a" stroke-width="1.5" stroke-linejoin="round"/>
  <line x1="68" y1="50" x2="78" y2="50" stroke="#0a0a0a" stroke-width="1"/>
  <line x1="84" y1="52" x2="92" y2="52" stroke="#0a0a0a" stroke-width="1"/>

  <!-- EARTH — Radiating left from center -->
  <path d="M 32 50 L 18 56 L 6 50 L 18 44 Z" fill="none" stroke="#0a0a0a" stroke-width="1.5" stroke-linejoin="round"/>
  <line x1="32" y1="50" x2="22" y2="50" stroke="#0a0a0a" stroke-width="1"/>
  <line x1="8" y1="48" x2="16" y2="48" stroke="#0a0a0a" stroke-width="1"/>

  <!-- Center - prima materia -->
  <circle cx="50" cy="50" r="6" fill="#0a0a0a"/>

</svg>