<svg xmlns="http://www.w3.org/2000/svg" viewBox="0 0 80 80">
  <!--
    Greek fish plate — actual ancient artifact
    Plates made specifically for serving fish
    4th century BCE, Southern Italy
    Littoral + cooking + ancient
  -->

  <!-- Plate circle -->
  <circle cx="40" cy="40" r="35" fill="none" stroke="#0a0a0a" stroke-width="1.5"/>

  <!-- Inner ring -->
  <circle cx="40" cy="40" r="28" fill="none" stroke="#0a0a0a" stroke-width="0.8"/>

  <!-- Central depression (for sauce) -->
  <circle cx="40" cy="40" r="8" fill="none" stroke="#0a0a0a" stroke-width="1"/>

  <!-- Fish arranged radially - ancient style -->
  <g transform="rotate(0 40 40)">
    <path d="M 40 12 C 44 16, 44 22, 40 26 C 36 22, 36 16, 40 12 Z" fill="none" stroke="#0a0a0a" stroke-width="1"/>
    <circle cx="40" cy="16" r="0.8" fill="#0a0a0a"/>
  </g>

  <g transform="rotate(90 40 40)">
    <path d="M 40 12 C 44 16, 44 22, 40 26 C 36 22, 36 16, 40 12 Z" fill="none" stroke="#0a0a0a" stroke-width="1"/>
    <circle cx="40" cy="16" r="0.8" fill="#0a0a0a"/>
  </g>

  <g transform="rotate(180 40 40)">
    <path d="M 40 12 C 44 16, 44 22, 40 26 C 36 22, 36 16, 40 12 Z" fill="none" stroke="#0a0a0a" stroke-width="1"/>
    <circle cx="40" cy="16" r="0.8" fill="#0a0a0a"/>
  </g>

  <g transform="rotate(270 40 40)">
    <path d="M 40 12 C 44 16, 44 22, 40 26 C 36 22, 36 16, 40 12 Z" fill="none" stroke="#0a0a0a" stroke-width="1"/>
    <circle cx="40" cy="16" r="0.8" fill="#0a0a0a"/>
  </g>

</svg>