<svg xmlns="http://www.w3.org/2000/svg" viewBox="0 0 80 80">
  <!--
    Olive branch — Mediterranean, ancient
    Peace, abundance, cooking
    The essential coastal ingredient
  -->

  <!-- Main branch -->
  <path
    d="M 15 65
       Q 30 50, 45 40
       Q 55 32, 65 20"
    fill="none"
    stroke="#0a0a0a"
    stroke-width="1.5"
    stroke-linecap="round"
  />

  <!-- Leaves - pairs along branch -->
  <ellipse cx="28" cy="52" rx="8" ry="4" transform="rotate(-35 28 52)" fill="none" stroke="#0a0a0a" stroke-width="1.2"/>
  <ellipse cx="35" cy="48" rx="8" ry="4" transform="rotate(-55 35 48)" fill="none" stroke="#0a0a0a" stroke-width="1.2"/>

  <ellipse cx="42" cy="40" rx="8" ry="4" transform="rotate(-35 42 40)" fill="none" stroke="#0a0a0a" stroke-width="1.2"/>
  <ellipse cx="48" cy="36" rx="8" ry="4" transform="rotate(-55 48 36)" fill="none" stroke="#0a0a0a" stroke-width="1.2"/>

  <ellipse cx="55" cy="28" rx="8" ry="4" transform="rotate(-35 55 28)" fill="none" stroke="#0a0a0a" stroke-width="1.2"/>
  <ellipse cx="60" cy="24" rx="7" ry="3.5" transform="rotate(-55 60 24)" fill="none" stroke="#0a0a0a" stroke-width="1.2"/>

  <!-- Olives -->
  <ellipse cx="25" cy="58" rx="3" ry="4" fill="#0a0a0a"/>
  <ellipse cx="52" cy="32" rx="3" ry="4" fill="#0a0a0a"/>

</svg>